<?xml version="1.0" encoding="utf-8"?>
<!-- Generator: Adobe Illustrator 25.4.1, SVG Export Plug-In . SVG Version: 6.00 Build 0)  -->
<svg version="1.1" id="Layer_1" xmlns="http://www.w3.org/2000/svg" xmlns:xlink="http://www.w3.org/1999/xlink" x="0px" y="0px"
	 viewBox="0 0 454 108" style="enable-background:new 0 0 454 108;" xml:space="preserve">
<style type="text/css">
	.st0{fill:#F9F9F9;}
	.st1{fill:#4E7EFB;}
</style>
<g>
	<path class="st0" d="M6,26.3c0-2.2,1.4-3.7,3.7-3.7h32.4c2.5,0,4.1,1.7,4.1,3.8c0,2.2-1.6,3.9-4.1,3.9H14.8c-0.4,0-0.6,0.2-0.6,0.6
		v18.5c0,0.4,0.2,0.6,0.6,0.6h22.8c2.5,0,4.1,1.7,4.1,3.8c0,2.2-1.6,3.9-4.1,3.9H14.8c-0.4,0-0.6,0.2-0.6,0.6v19.2
		c0,0.4,0.2,0.6,0.6,0.6h27.3c2.5,0,4.1,1.7,4.1,3.8c0,2.2-1.6,3.9-4.1,3.9H9.7c-2.3,0-3.7-1.5-3.7-3.7V26.3z"/>
	<path class="st0" d="M64.3,86.1c-8,0-10.8-3.9-10.8-11.9V26.3c0-2.6,1.7-4.2,3.9-4.2s3.9,1.6,3.9,4.2v47.5c0,3.7,1.2,5.1,4.3,5.1
		c2.2,0,3.6,1.5,3.6,3.6s-1.4,3.6-4,3.6H64.3z"/>
	<path class="st0" d="M73.5,74.6c-0.9-2.8-1.5-5.9-1.5-11.2s0.5-8.4,1.4-11.2c2.5-7.7,8.9-12,17.3-12c8.7,0,15,4.3,17.4,11.9
		c1,3,1.5,6.4,1.5,10.8c0,1.8-1.2,3-3.1,3h-26c-0.4,0-0.6,0.2-0.6,0.6c0,2.1,0.2,3.6,0.7,5.4c1.7,5.1,5.7,7.7,11.2,7.7
		c4.4,0,7.3-1.3,10.7-3.8c0.9-0.7,1.8-1.1,2.7-1.1c1.9,0,3.2,1.4,3.2,3.2c0,1.1-0.5,2-1.2,2.8c-3.8,3.5-9.1,6.1-15.9,6.1
		C82.3,86.7,76,82.4,73.5,74.6z M101.2,59.6c0.4,0,0.6-0.2,0.6-0.6c0-2-0.2-3.6-0.6-5c-1.5-4.4-5.2-7-10.2-7s-8.7,2.5-10.2,7
		c-0.5,1.4-0.6,3-0.6,5c0,0.4,0.2,0.6,0.6,0.6H101.2z"/>
	<path class="st0" d="M117.2,74.7c-0.8-2.7-1.4-6.3-1.4-11.3c0-4.9,0.6-8.5,1.4-11.2c2.5-7.7,9-12,17.5-12c6.7,0,11.4,2.9,14.2,6.5
		c0.7,1,1.1,1.9,1.1,2.9c0,1.9-1.5,3.4-3.4,3.4c-1.4,0-2.4-0.7-3.4-1.9c-2-2.2-4.4-3.7-8.4-3.7c-4.8,0-8.4,2.3-9.9,7
		c-0.7,2.3-1,5.1-1,9c0,4,0.3,6.8,1,9.1c1.5,4.6,5.1,7,9.9,7c4,0,6.4-1.5,8.4-3.7c1-1.1,2-1.9,3.4-1.9c1.9,0,3.4,1.5,3.4,3.4
		c0,1-0.4,1.9-1.1,2.9c-2.8,3.6-7.5,6.5-14.2,6.5C126.2,86.7,119.7,82.4,117.2,74.7z"/>
	<path class="st0" d="M173.1,86.1c-9.1,0-12.4-3.8-12.4-13.1V48.1c0-0.4-0.2-0.6-0.6-0.6h-2.5c-2.1,0-3.3-1.3-3.3-3.2
		s1.2-3.2,3.3-3.2h2.5c0.4,0,0.6-0.2,0.6-0.6v-9.7c0-2.6,1.7-4.2,3.9-4.2s3.9,1.6,3.9,4.2v9.7c0,0.4,0.2,0.6,0.6,0.6h5.8
		c2.1,0,3.3,1.3,3.3,3.2s-1.2,3.2-3.3,3.2H169c-0.4,0-0.6,0.2-0.6,0.6v24.7c0,4.7,1.2,6.1,5.9,6.1c2.4,0,3.8,1.5,3.8,3.6
		s-1.4,3.6-4.2,3.6H173.1z"/>
	<path class="st0" d="M184.8,81.9v-37c0-2.6,1.7-4.2,3.9-4.2s3.9,1.6,3.9,4.2v2h0.1c1.9-4,5.9-6.8,11.4-6.8c3.1,0,5.1,0.7,6.6,1.6
		c1.6,0.8,2.2,2,2.2,3.3c0,2.2-1.6,3.9-3.9,3.9c-0.6,0-1.3-0.2-1.9-0.5c-1.7-0.6-3.2-1.1-5.1-1.1c-6.7,0-9.4,5.6-9.4,13v21.5
		c0,2.6-1.7,4.2-3.9,4.2S184.8,84.5,184.8,81.9z"/>
	<path class="st0" d="M217.3,74.7c-1-3.1-1.5-6.1-1.5-11.3c0-5.1,0.5-8.2,1.5-11.2c2.4-7.6,8.9-12,17.5-12s15.1,4.4,17.5,12
		c1,3.1,1.5,6.1,1.5,11.2c0,5.2-0.5,8.3-1.5,11.3c-2.4,7.5-8.9,12-17.5,12S219.7,82.2,217.3,74.7z M244.8,72.5c0.7-2.4,1-4.8,1-9.1
		s-0.3-6.6-1-9c-1.5-4.4-5.1-7-10-7s-8.5,2.5-10,7c-0.7,2.4-1,4.7-1,9s0.3,6.7,1,9.1c1.5,4.4,5.1,7,10,7
		C239.7,79.4,243.3,76.9,244.8,72.5z"/>
	<path class="st1" d="M261.5,80.7c-1.3-0.9-2-2.1-2-3.6c0-2,1.6-3.9,4-3.9c0.9,0,1.9,0.4,2.6,0.8c4.5,2.9,9.6,4.9,15.7,4.9
		c8.9,0,14.1-4.3,14.1-10.8c0-5.4-3-8.7-13.2-10.3l-3.1-0.5c-12.7-1.9-18.6-7.6-18.6-17.5c0-11.2,8-18.4,20.6-18.4
		c6.8,0,12.9,1.9,16.7,4.3c1.6,1,2.2,2.2,2.2,3.6c0,2-1.6,3.7-3.7,3.7c-0.8,0-1.9-0.4-2.7-0.7c-4-1.8-8.2-3.2-12.8-3.2
		c-8,0-12,4.4-12,10.2c0,5.3,3.2,8.6,13.1,10.1l3.1,0.5c12.7,1.9,18.7,7.6,18.7,17.7c0,10.9-7.8,18.9-23.1,18.9
		C272.9,86.7,266,83.8,261.5,80.7z"/>
	<path class="st1" d="M324.6,86.1c-9.1,0-12.4-3.8-12.4-13.1V48.1c0-0.4-0.2-0.6-0.6-0.6h-2.5c-2.1,0-3.3-1.3-3.3-3.2
		s1.2-3.2,3.3-3.2h2.5c0.4,0,0.6-0.2,0.6-0.6v-9.7c0-2.6,1.7-4.2,3.9-4.2c2.2,0,3.9,1.6,3.9,4.2v9.7c0,0.4,0.2,0.6,0.6,0.6h5.8
		c2.1,0,3.3,1.3,3.3,3.2s-1.2,3.2-3.3,3.2h-5.8c-0.4,0-0.6,0.2-0.6,0.6v24.7c0,4.7,1.2,6.1,5.9,6.1c2.4,0,3.8,1.5,3.8,3.6
		s-1.4,3.6-4.2,3.6H324.6z"/>
	<path class="st1" d="M334.5,74.7c-1-3.1-1.5-6.1-1.5-11.3c0-5.1,0.5-8.2,1.5-11.2c2.4-7.6,8.9-12,17.5-12s15.1,4.4,17.5,12
		c1,3.1,1.5,6.1,1.5,11.2c0,5.2-0.5,8.3-1.5,11.3c-2.4,7.5-8.9,12-17.5,12S336.9,82.2,334.5,74.7z M362,72.5c0.7-2.4,1-4.8,1-9.1
		s-0.3-6.6-1-9c-1.5-4.4-5.1-7-10-7s-8.5,2.5-10,7c-0.7,2.4-1,4.7-1,9s0.3,6.7,1,9.1c1.5,4.4,5.1,7,10,7
		C356.9,79.4,360.5,76.9,362,72.5z"/>
	<path class="st1" d="M379.3,81.9v-37c0-2.6,1.7-4.2,3.9-4.2c2.2,0,3.9,1.6,3.9,4.2v2h0.1c1.9-4,5.9-6.8,11.4-6.8
		c3.1,0,5.1,0.7,6.6,1.6c1.6,0.8,2.2,2,2.2,3.3c0,2.2-1.6,3.9-3.9,3.9c-0.6,0-1.3-0.2-1.9-0.5c-1.7-0.6-3.2-1.1-5.1-1.1
		c-6.7,0-9.4,5.6-9.4,13v21.5c0,2.6-1.7,4.2-3.9,4.2C381,86.1,379.3,84.5,379.3,81.9z"/>
	<path class="st1" d="M411.8,74.6c-0.9-2.8-1.5-5.9-1.5-11.2s0.5-8.4,1.4-11.2c2.5-7.7,8.9-12,17.3-12c8.7,0,15,4.3,17.4,11.9
		c1,3,1.5,6.4,1.5,10.8c0,1.8-1.2,3-3.1,3h-26c-0.4,0-0.6,0.2-0.6,0.6c0,2.1,0.2,3.6,0.7,5.4c1.7,5.1,5.7,7.7,11.2,7.7
		c4.4,0,7.3-1.3,10.7-3.8c0.9-0.7,1.8-1.1,2.7-1.1c1.9,0,3.2,1.4,3.2,3.2c0,1.1-0.5,2-1.2,2.8c-3.8,3.5-9.1,6.1-15.9,6.1
		C420.6,86.7,414.3,82.4,411.8,74.6z M439.5,59.6c0.4,0,0.6-0.2,0.6-0.6c0-2-0.2-3.6-0.6-5c-1.5-4.4-5.2-7-10.2-7s-8.7,2.5-10.2,7
		c-0.5,1.4-0.6,3-0.6,5c0,0.4,0.2,0.6,0.6,0.6H439.5z"/>
</g>
</svg>
